<svg width="542" height="353" viewBox="0 0 542 353" fill="none" xmlns="http://www.w3.org/2000/svg">
<path d="M290.865 331.31C303.508 378.662 345.46 393.099 345.46 393.099L369.022 311.099C375.343 311.677 382.239 312.254 388.561 312.254C473.038 312.254 542 243.536 542 158.072C542 72.6075 473.038 4.46704 388.561 4.46704C340.288 4.46704 297.761 26.9881 269.602 61.6358C269.602 61.6358 255.235 78.9596 242.592 110.143C232.823 140.748 225.926 194.452 269.027 253.931C270.177 252.776 283.394 235.452 296.037 205.424C309.255 173.663 321.323 143.635 326.495 136.706L333.966 123.424C345.46 105.523 365.573 93.3962 388.561 93.3962C424.191 93.3962 453.499 122.847 453.499 158.649C453.499 194.452 424.191 223.903 388.561 223.903C375.918 223.903 364.424 219.86 353.505 214.663C339.138 207.734 331.093 207.734 331.093 207.734C331.093 207.734 296.612 271.832 294.313 277.607C287.992 293.198 282.82 301.282 290.865 331.31Z" fill="white"/>
<path d="M270.427 249.928C270.427 249.928 271 249.928 270.427 249.928C227.457 189.899 234.332 136.219 244.072 106.205C230.894 137.951 218.863 167.965 213.706 174.892C205.112 200.866 181.049 219.336 152.402 219.336C116.879 219.336 87.6596 189.899 87.6596 154.113C87.6596 118.326 116.879 88.8889 152.975 88.8889C165.006 88.8889 171.882 91.1977 182.767 96.3925C182.195 96.3925 187.924 98.7014 187.351 98.7014C203.966 104.473 208.55 103.896 208.55 103.896C208.55 103.896 225.165 61.1833 244.645 36.9409C236.624 30.5916 219.436 17.8932 201.674 8.08081C194.226 4.04041 182.767 1.7316 171.309 0.577202V1.1544C165.579 0.577201 159.277 0 152.975 0C68.1797 0.577201 0 69.2641 0 154.113C0 238.961 68.1797 308.225 152.975 308.225C200.529 308.225 242.926 286.292 271 252.237C270.427 250.505 270.427 249.928 270.427 249.928Z" fill="white"/>
<path d="M262.714 72.9614C257.496 80.9945 249.379 93.6179 242.422 110.258C232.566 140.669 226.189 194.031 270.25 253.132C270.83 252.558 281.846 237.639 292.861 213.54C295.76 181.408 285.324 128.045 262.714 72.9614Z" fill="white"/>
</svg>
