<svg width="177" height="221" viewBox="0 0 177 221" fill="none" xmlns="http://www.w3.org/2000/svg">
<path id="Vector" d="M163.01 17.2956L163.013 17.295C164.54 16.9651 166.122 16.9818 167.643 17.3438C169.163 17.7057 170.583 18.4038 171.798 19.3867C173.011 20.3709 173.988 21.6144 174.658 23.0259C175.327 24.4375 175.672 25.9813 175.667 27.5437V27.5454V109.185V109.185C175.677 124.817 171.952 140.225 164.802 154.126C157.652 168.027 147.285 180.019 134.563 189.103L94.5661 217.594C92.7948 218.855 90.6746 219.533 88.5002 219.533C86.3259 219.533 84.2056 218.855 82.4344 217.594L42.437 189.103C29.7155 180.019 19.3482 168.027 12.1986 154.126C5.04893 140.225 1.32387 124.817 1.33356 109.185V109.185L1.33356 27.5454L1.33356 27.5437C1.32824 25.9813 1.67307 24.4375 2.34271 23.0259C3.01226 21.6144 3.98953 20.3708 5.20273 19.3866C6.41771 18.4037 7.83749 17.7057 9.35771 17.3438C10.878 16.9818 12.46 16.9651 13.9876 17.295L13.9906 17.2956C25.7671 19.7637 37.9241 19.7951 49.7131 17.388C61.502 14.981 72.6734 10.1864 82.5396 3.29958C84.2901 2.08535 86.3698 1.43469 88.5002 1.43469C90.6307 1.43469 92.7104 2.08537 94.461 3.29966C104.327 10.1865 115.499 14.981 127.287 17.388C139.076 19.7951 151.233 19.7637 163.01 17.2956ZM122.433 172.055L122.433 172.054C132.437 164.905 140.588 155.471 146.209 144.535C151.831 133.6 154.759 121.48 154.75 109.185V40.1475V39.6029L154.208 39.6493C131.339 41.6066 108.436 36.3007 88.7576 24.4867L88.5002 24.3322L88.2429 24.4867C68.5647 36.3007 45.6614 41.6066 22.7929 39.6493L22.2502 39.6029V40.1475V109.185C22.2418 121.48 25.17 133.6 30.7911 144.535C36.4123 155.471 44.5638 164.905 54.5674 172.054L54.5678 172.055L88.2099 196.053L88.5002 196.26L88.7906 196.053L122.433 172.055ZM75.5426 114.029L75.8968 114.388L76.2524 114.031L105.632 84.5418L105.936 84.4659L106.07 84.4323L106.168 84.3344C108.138 82.3647 110.809 81.2581 113.595 81.2581C116.38 81.2581 119.052 82.3647 121.022 84.3344C122.991 86.3041 124.098 88.9756 124.098 91.7612C124.098 94.5465 122.992 97.2178 121.022 99.1875C121.022 99.1877 121.022 99.1879 121.022 99.1881L83.3266 136.554L83.3236 136.557C82.3513 137.538 81.1946 138.316 79.9202 138.847C78.6457 139.378 77.2788 139.651 75.8981 139.651C74.5175 139.651 73.1506 139.378 71.8761 138.847C70.6017 138.316 69.445 137.538 68.4727 136.557L68.4713 136.556L50.9379 119.023C48.9682 117.053 47.8616 114.381 47.8616 111.596C47.8616 108.81 48.9682 106.139 50.9379 104.169C52.9077 102.199 55.5792 101.093 58.3648 101.093C61.1495 101.093 63.8202 102.199 65.7897 104.167C65.7904 104.168 65.791 104.168 65.7917 104.169L75.5426 114.029Z" fill="white" fill-opacity="0.1" stroke="url(#paint0_linear_1445_406)"/>
<defs>
<linearGradient id="paint0_linear_1445_406" x1="0.679856" y1="110.574" x2="176.122" y2="110.574" gradientUnits="userSpaceOnUse">
<stop stop-color="#1A949D"/>
<stop offset="1" stop-color="#5EBEB6"/>
</linearGradient>
</defs>
</svg>
